# xmcd CD database file
#
# Track frame offsets:
#	150
#	39354
#	64703
#	94184
#	117992
#	140620
#	175008
#
# Disc length: 2678 seconds
#
# Revision: 6
# Processed by: cddbd v1.5.2PL0 Copyright (c) Steve Scherf et al.
# Submitted via: CDex 1.70beta3
#
DISCID=590a7407
DTITLE=I've - master groove circle DISC1
DYEAR=2008
DGENRE=JPop
TTITLE0=Suppuration-core-(G.M.S. remix)
TTITLE1=TRILL(Shiva Joerg remix)
TTITLE2=kicks!(SINE6 remix)
TTITLE3=リアル鬼ごっこ(Ben Watkins from JUNO REACTOR remix)
TTITLE4=IMMORAL(SORMA No.1 remix)
TTITLE5=WHEEL OF FORTUNE(運命の輪)(SINE6 remix)
TTITLE6=Change of heart(soyuz project remix)
EXTD=YEAR: 2008
EXTT0=
EXTT1=
EXTT2=
EXTT3=
EXTT4=
EXTT5=
EXTT6=
PLAYORDER=
